<mxfile host="app.diagrams.net" agent="Mozilla/5.0 (Macintosh; Intel Mac OS X 10_15_7) AppleWebKit/537.36 (KHTML, like Gecko) Chrome/135.0.0.0 Safari/537.36" version="26.2.12">
  <diagram name="Page-1" id="e56a1550-8fbb-45ad-956c-1786394a9013">
    <mxGraphModel dx="1824" dy="1130" grid="1" gridSize="10" guides="1" tooltips="1" connect="1" arrows="1" fold="1" page="1" pageScale="1" pageWidth="1100" pageHeight="850" background="none" math="0" shadow="0">
      <root>
        <mxCell id="0" />
        <mxCell id="1" parent="0" />
        <mxCell id="2e49270ec7c68f3f-8" value="DEPARTMENT" style="swimlane;html=1;fontStyle=0;childLayout=stackLayout;horizontal=1;startSize=26;fillColor=#e0e0e0;horizontalStack=0;resizeParent=1;resizeLast=0;collapsible=1;marginBottom=0;swimlaneFillColor=#ffffff;align=center;rounded=0;shadow=0;comic=0;labelBackgroundColor=none;strokeWidth=1;fontFamily=Verdana;fontSize=14;swimlaneLine=1;" parent="1" vertex="1">
          <mxGeometry x="390" y="104" width="160" height="116" as="geometry" />
        </mxCell>
        <mxCell id="2e49270ec7c68f3f-9" value="DPT_DepartmentId" style="shape=partialRectangle;top=0;left=0;right=0;bottom=1;html=1;align=left;verticalAlign=middle;fillColor=none;spacingLeft=34;spacingRight=4;whiteSpace=wrap;overflow=hidden;rotatable=0;points=[[0,0.5],[1,0.5]];portConstraint=eastwest;dropTarget=0;fontStyle=5;" parent="2e49270ec7c68f3f-8" vertex="1">
          <mxGeometry y="26" width="160" height="30" as="geometry" />
        </mxCell>
        <mxCell id="2e49270ec7c68f3f-10" value="PK" style="shape=partialRectangle;top=0;left=0;bottom=0;html=1;fillColor=none;align=left;verticalAlign=middle;spacingLeft=4;spacingRight=4;whiteSpace=wrap;overflow=hidden;rotatable=0;points=[];portConstraint=eastwest;part=1;" parent="2e49270ec7c68f3f-9" vertex="1" connectable="0">
          <mxGeometry width="30" height="30" as="geometry" />
        </mxCell>
        <mxCell id="2e49270ec7c68f3f-11" value="DIV_DivisionId" style="shape=partialRectangle;top=0;left=0;right=0;bottom=0;html=1;align=left;verticalAlign=top;fillColor=none;spacingLeft=34;spacingRight=4;whiteSpace=wrap;overflow=hidden;rotatable=0;points=[[0,0.5],[1,0.5]];portConstraint=eastwest;dropTarget=0;" parent="2e49270ec7c68f3f-8" vertex="1">
          <mxGeometry y="56" width="160" height="26" as="geometry" />
        </mxCell>
        <mxCell id="2e49270ec7c68f3f-12" value="FK" style="shape=partialRectangle;top=0;left=0;bottom=0;html=1;fillColor=none;align=left;verticalAlign=top;spacingLeft=4;spacingRight=4;whiteSpace=wrap;overflow=hidden;rotatable=0;points=[];portConstraint=eastwest;part=1;" parent="2e49270ec7c68f3f-11" vertex="1" connectable="0">
          <mxGeometry width="30" height="26" as="geometry" />
        </mxCell>
        <mxCell id="2e49270ec7c68f3f-13" value="EMP_EmployeeId" style="shape=partialRectangle;top=0;left=0;right=0;bottom=0;html=1;align=left;verticalAlign=top;fillColor=none;spacingLeft=34;spacingRight=4;whiteSpace=wrap;overflow=hidden;rotatable=0;points=[[0,0.5],[1,0.5]];portConstraint=eastwest;dropTarget=0;" parent="2e49270ec7c68f3f-8" vertex="1">
          <mxGeometry y="82" width="160" height="26" as="geometry" />
        </mxCell>
        <mxCell id="2e49270ec7c68f3f-14" value="FK" style="shape=partialRectangle;top=0;left=0;bottom=0;html=1;fillColor=none;align=left;verticalAlign=top;spacingLeft=4;spacingRight=4;whiteSpace=wrap;overflow=hidden;rotatable=0;points=[];portConstraint=eastwest;part=1;" parent="2e49270ec7c68f3f-13" vertex="1" connectable="0">
          <mxGeometry width="30" height="26" as="geometry" />
        </mxCell>
        <mxCell id="lofEi2e8uMbY3Hfqrcsc-6" value="DIVISION" style="swimlane;html=1;fontStyle=0;childLayout=stackLayout;horizontal=1;startSize=26;fillColor=#e0e0e0;horizontalStack=0;resizeParent=1;resizeLast=0;collapsible=1;marginBottom=0;swimlaneFillColor=#ffffff;align=center;rounded=0;shadow=0;comic=0;labelBackgroundColor=none;strokeWidth=1;fontFamily=Verdana;fontSize=14;swimlaneLine=1;" vertex="1" parent="1">
          <mxGeometry x="150" y="104" width="150" height="118" as="geometry" />
        </mxCell>
        <mxCell id="lofEi2e8uMbY3Hfqrcsc-7" value="DIV DivisionId" style="shape=partialRectangle;top=0;left=0;right=0;bottom=1;html=1;align=left;verticalAlign=middle;fillColor=none;spacingLeft=34;spacingRight=4;whiteSpace=wrap;overflow=hidden;rotatable=0;points=[[0,0.5],[1,0.5]];portConstraint=eastwest;dropTarget=0;fontStyle=5;" vertex="1" parent="lofEi2e8uMbY3Hfqrcsc-6">
          <mxGeometry y="26" width="150" height="30" as="geometry" />
        </mxCell>
        <mxCell id="lofEi2e8uMbY3Hfqrcsc-8" value="PK" style="shape=partialRectangle;top=0;left=0;bottom=0;html=1;fillColor=none;align=left;verticalAlign=middle;spacingLeft=4;spacingRight=4;whiteSpace=wrap;overflow=hidden;rotatable=0;points=[];portConstraint=eastwest;part=1;" vertex="1" connectable="0" parent="lofEi2e8uMbY3Hfqrcsc-7">
          <mxGeometry width="30" height="30" as="geometry" />
        </mxCell>
        <mxCell id="lofEi2e8uMbY3Hfqrcsc-9" value="EMP_EmployeeId" style="shape=partialRectangle;top=0;left=0;right=0;bottom=0;html=1;align=left;verticalAlign=top;fillColor=none;spacingLeft=34;spacingRight=4;whiteSpace=wrap;overflow=hidden;rotatable=0;points=[[0,0.5],[1,0.5]];portConstraint=eastwest;dropTarget=0;" vertex="1" parent="lofEi2e8uMbY3Hfqrcsc-6">
          <mxGeometry y="56" width="150" height="26" as="geometry" />
        </mxCell>
        <mxCell id="lofEi2e8uMbY3Hfqrcsc-10" value="FK" style="shape=partialRectangle;top=0;left=0;bottom=0;html=1;fillColor=none;align=left;verticalAlign=top;spacingLeft=4;spacingRight=4;whiteSpace=wrap;overflow=hidden;rotatable=0;points=[];portConstraint=eastwest;part=1;" vertex="1" connectable="0" parent="lofEi2e8uMbY3Hfqrcsc-9">
          <mxGeometry width="30" height="26" as="geometry" />
        </mxCell>
        <mxCell id="lofEi2e8uMbY3Hfqrcsc-11" value="DIV_DivisionName" style="shape=partialRectangle;top=0;left=0;right=0;bottom=0;html=1;align=left;verticalAlign=top;fillColor=none;spacingLeft=34;spacingRight=4;whiteSpace=wrap;overflow=hidden;rotatable=0;points=[[0,0.5],[1,0.5]];portConstraint=eastwest;dropTarget=0;" vertex="1" parent="lofEi2e8uMbY3Hfqrcsc-6">
          <mxGeometry y="82" width="150" height="26" as="geometry" />
        </mxCell>
        <mxCell id="lofEi2e8uMbY3Hfqrcsc-12" value="" style="shape=partialRectangle;top=0;left=0;bottom=0;html=1;fillColor=none;align=left;verticalAlign=top;spacingLeft=4;spacingRight=4;whiteSpace=wrap;overflow=hidden;rotatable=0;points=[];portConstraint=eastwest;part=1;" vertex="1" connectable="0" parent="lofEi2e8uMbY3Hfqrcsc-11">
          <mxGeometry width="30" height="26" as="geometry" />
        </mxCell>
        <mxCell id="lofEi2e8uMbY3Hfqrcsc-15" value="" style="shape=partialRectangle;top=0;left=0;right=0;bottom=0;html=1;align=left;verticalAlign=top;fillColor=none;spacingLeft=34;spacingRight=4;whiteSpace=wrap;overflow=hidden;rotatable=0;points=[[0,0.5],[1,0.5]];portConstraint=eastwest;dropTarget=0;" vertex="1" parent="lofEi2e8uMbY3Hfqrcsc-6">
          <mxGeometry y="108" width="150" height="10" as="geometry" />
        </mxCell>
        <mxCell id="lofEi2e8uMbY3Hfqrcsc-16" value="" style="shape=partialRectangle;top=0;left=0;bottom=0;html=1;fillColor=none;align=left;verticalAlign=top;spacingLeft=4;spacingRight=4;whiteSpace=wrap;overflow=hidden;rotatable=0;points=[];portConstraint=eastwest;part=1;" vertex="1" connectable="0" parent="lofEi2e8uMbY3Hfqrcsc-15">
          <mxGeometry width="30" height="10" as="geometry" />
        </mxCell>
        <mxCell id="lofEi2e8uMbY3Hfqrcsc-17" value="" style="endArrow=ERoneToMany;startArrow=ERmandOne;html=1;rounded=0;exitX=1;exitY=0.5;exitDx=0;exitDy=0;startFill=0;endFill=0;" edge="1" parent="1">
          <mxGeometry width="50" height="50" relative="1" as="geometry">
            <mxPoint x="301" y="169.5" as="sourcePoint" />
            <mxPoint x="391" y="169.5" as="targetPoint" />
          </mxGeometry>
        </mxCell>
        <mxCell id="lofEi2e8uMbY3Hfqrcsc-18" value="Operates" style="text;html=1;align=center;verticalAlign=middle;whiteSpace=wrap;rounded=0;fontSize=14;" vertex="1" parent="1">
          <mxGeometry x="314" y="142.5" width="64" height="30" as="geometry" />
        </mxCell>
        <mxCell id="lofEi2e8uMbY3Hfqrcsc-19" value="EMPLOYEE" style="swimlane;html=1;fontStyle=0;childLayout=stackLayout;horizontal=1;startSize=26;fillColor=#e0e0e0;horizontalStack=0;resizeParent=1;resizeLast=0;collapsible=1;marginBottom=0;swimlaneFillColor=#ffffff;align=center;rounded=0;shadow=0;comic=0;labelBackgroundColor=none;strokeWidth=1;fontFamily=Verdana;fontSize=14;swimlaneLine=1;" vertex="1" parent="1">
          <mxGeometry x="650" y="104" width="170" height="116" as="geometry" />
        </mxCell>
        <mxCell id="lofEi2e8uMbY3Hfqrcsc-20" value="EMP_EmployeeId" style="shape=partialRectangle;top=0;left=0;right=0;bottom=1;html=1;align=left;verticalAlign=middle;fillColor=none;spacingLeft=34;spacingRight=4;whiteSpace=wrap;overflow=hidden;rotatable=0;points=[[0,0.5],[1,0.5]];portConstraint=eastwest;dropTarget=0;fontStyle=5;" vertex="1" parent="lofEi2e8uMbY3Hfqrcsc-19">
          <mxGeometry y="26" width="170" height="30" as="geometry" />
        </mxCell>
        <mxCell id="lofEi2e8uMbY3Hfqrcsc-21" value="PK" style="shape=partialRectangle;top=0;left=0;bottom=0;html=1;fillColor=none;align=left;verticalAlign=middle;spacingLeft=4;spacingRight=4;whiteSpace=wrap;overflow=hidden;rotatable=0;points=[];portConstraint=eastwest;part=1;" vertex="1" connectable="0" parent="lofEi2e8uMbY3Hfqrcsc-20">
          <mxGeometry width="30" height="30" as="geometry" />
        </mxCell>
        <mxCell id="lofEi2e8uMbY3Hfqrcsc-22" value="DPT_DepartmentId" style="shape=partialRectangle;top=0;left=0;right=0;bottom=0;html=1;align=left;verticalAlign=top;fillColor=none;spacingLeft=34;spacingRight=4;whiteSpace=wrap;overflow=hidden;rotatable=0;points=[[0,0.5],[1,0.5]];portConstraint=eastwest;dropTarget=0;" vertex="1" parent="lofEi2e8uMbY3Hfqrcsc-19">
          <mxGeometry y="56" width="170" height="26" as="geometry" />
        </mxCell>
        <mxCell id="lofEi2e8uMbY3Hfqrcsc-23" value="FK" style="shape=partialRectangle;top=0;left=0;bottom=0;html=1;fillColor=none;align=left;verticalAlign=top;spacingLeft=4;spacingRight=4;whiteSpace=wrap;overflow=hidden;rotatable=0;points=[];portConstraint=eastwest;part=1;" vertex="1" connectable="0" parent="lofEi2e8uMbY3Hfqrcsc-22">
          <mxGeometry width="30" height="26" as="geometry" />
        </mxCell>
        <mxCell id="lofEi2e8uMbY3Hfqrcsc-24" value="EMP_EmployeeName" style="shape=partialRectangle;top=0;left=0;right=0;bottom=0;html=1;align=left;verticalAlign=top;fillColor=none;spacingLeft=34;spacingRight=4;whiteSpace=wrap;overflow=hidden;rotatable=0;points=[[0,0.5],[1,0.5]];portConstraint=eastwest;dropTarget=0;" vertex="1" parent="lofEi2e8uMbY3Hfqrcsc-19">
          <mxGeometry y="82" width="170" height="26" as="geometry" />
        </mxCell>
        <mxCell id="lofEi2e8uMbY3Hfqrcsc-25" value="" style="shape=partialRectangle;top=0;left=0;bottom=0;html=1;fillColor=none;align=left;verticalAlign=top;spacingLeft=4;spacingRight=4;whiteSpace=wrap;overflow=hidden;rotatable=0;points=[];portConstraint=eastwest;part=1;" vertex="1" connectable="0" parent="lofEi2e8uMbY3Hfqrcsc-24">
          <mxGeometry width="30" height="26" as="geometry" />
        </mxCell>
        <mxCell id="lofEi2e8uMbY3Hfqrcsc-31" value="" style="endArrow=ERoneToMany;startArrow=ERzeroToOne;html=1;rounded=0;startFill=0;endFill=0;" edge="1" parent="1">
          <mxGeometry width="50" height="50" relative="1" as="geometry">
            <mxPoint x="550" y="144" as="sourcePoint" />
            <mxPoint x="650" y="144" as="targetPoint" />
          </mxGeometry>
        </mxCell>
        <mxCell id="lofEi2e8uMbY3Hfqrcsc-40" value="Employs" style="text;html=1;align=center;verticalAlign=middle;whiteSpace=wrap;rounded=0;fontSize=14;" vertex="1" parent="1">
          <mxGeometry x="570" y="118" width="64" height="30" as="geometry" />
        </mxCell>
        <mxCell id="lofEi2e8uMbY3Hfqrcsc-42" value="" style="endArrow=ERoneToMany;startArrow=ERzeroToOne;html=1;rounded=0;exitX=1;exitY=0.5;exitDx=0;exitDy=0;startFill=0;endFill=0;" edge="1" parent="1">
          <mxGeometry width="50" height="50" relative="1" as="geometry">
            <mxPoint x="550" y="196" as="sourcePoint" />
            <mxPoint x="650" y="196" as="targetPoint" />
          </mxGeometry>
        </mxCell>
        <mxCell id="lofEi2e8uMbY3Hfqrcsc-43" value="Manages" style="text;html=1;align=center;verticalAlign=middle;whiteSpace=wrap;rounded=0;fontSize=14;" vertex="1" parent="1">
          <mxGeometry x="570" y="170" width="64" height="30" as="geometry" />
        </mxCell>
        <mxCell id="lofEi2e8uMbY3Hfqrcsc-44" value="" style="endArrow=ERmandOne;startArrow=ERmandOne;html=1;rounded=0;startFill=0;endFill=0;entryX=0.5;entryY=0;entryDx=0;entryDy=0;exitX=0.848;exitY=0.012;exitDx=0;exitDy=0;exitPerimeter=0;" edge="1" parent="1" source="lofEi2e8uMbY3Hfqrcsc-6" target="lofEi2e8uMbY3Hfqrcsc-19">
          <mxGeometry width="50" height="50" relative="1" as="geometry">
            <mxPoint x="299" y="22" as="sourcePoint" />
            <mxPoint x="720" y="20" as="targetPoint" />
            <Array as="points">
              <mxPoint x="277" y="74" />
              <mxPoint x="735" y="74" />
            </Array>
          </mxGeometry>
        </mxCell>
        <mxCell id="lofEi2e8uMbY3Hfqrcsc-45" value="Runs" style="text;html=1;align=center;verticalAlign=middle;whiteSpace=wrap;rounded=0;fontSize=14;" vertex="1" parent="1">
          <mxGeometry x="461" y="50" width="64" height="30" as="geometry" />
        </mxCell>
        <mxCell id="lofEi2e8uMbY3Hfqrcsc-62" value="" style="endArrow=ERzeroToMany;startArrow=ERzeroToMany;html=1;rounded=0;startFill=0;endFill=0;entryX=1;entryY=0.5;entryDx=0;entryDy=0;exitX=-0.02;exitY=0.827;exitDx=0;exitDy=0;exitPerimeter=0;" edge="1" parent="1">
          <mxGeometry width="50" height="50" relative="1" as="geometry">
            <mxPoint x="938.5999999999995" y="150.80999999999995" as="sourcePoint" />
            <mxPoint x="821" y="151" as="targetPoint" />
          </mxGeometry>
        </mxCell>
        <mxCell id="lofEi2e8uMbY3Hfqrcsc-63" value="Is assigned to" style="text;html=1;align=center;verticalAlign=middle;whiteSpace=wrap;rounded=0;fontSize=14;" vertex="1" parent="1">
          <mxGeometry x="821" y="154" width="110" height="30" as="geometry" />
        </mxCell>
        <mxCell id="lofEi2e8uMbY3Hfqrcsc-64" value="PROJECT" style="swimlane;html=1;fontStyle=0;childLayout=stackLayout;horizontal=1;startSize=26;fillColor=#e0e0e0;horizontalStack=0;resizeParent=1;resizeLast=0;collapsible=1;marginBottom=0;swimlaneFillColor=#ffffff;align=center;rounded=0;shadow=0;comic=0;labelBackgroundColor=none;strokeWidth=1;fontFamily=Verdana;fontSize=14;swimlaneLine=1;" vertex="1" parent="1">
          <mxGeometry x="939" y="122" width="141" height="84" as="geometry" />
        </mxCell>
        <mxCell id="lofEi2e8uMbY3Hfqrcsc-65" value="PRJ_ProjectId" style="shape=partialRectangle;top=0;left=0;right=0;bottom=1;html=1;align=left;verticalAlign=middle;fillColor=none;spacingLeft=34;spacingRight=4;whiteSpace=wrap;overflow=hidden;rotatable=0;points=[[0,0.5],[1,0.5]];portConstraint=eastwest;dropTarget=0;fontStyle=5;" vertex="1" parent="lofEi2e8uMbY3Hfqrcsc-64">
          <mxGeometry y="26" width="141" height="30" as="geometry" />
        </mxCell>
        <mxCell id="lofEi2e8uMbY3Hfqrcsc-66" value="PK" style="shape=partialRectangle;top=0;left=0;bottom=0;html=1;fillColor=none;align=left;verticalAlign=middle;spacingLeft=4;spacingRight=4;whiteSpace=wrap;overflow=hidden;rotatable=0;points=[];portConstraint=eastwest;part=1;" vertex="1" connectable="0" parent="lofEi2e8uMbY3Hfqrcsc-65">
          <mxGeometry width="30" height="30" as="geometry" />
        </mxCell>
        <mxCell id="lofEi2e8uMbY3Hfqrcsc-67" value="PRJ_ProjectName" style="shape=partialRectangle;top=0;left=0;right=0;bottom=0;html=1;align=left;verticalAlign=top;fillColor=none;spacingLeft=34;spacingRight=4;whiteSpace=wrap;overflow=hidden;rotatable=0;points=[[0,0.5],[1,0.5]];portConstraint=eastwest;dropTarget=0;" vertex="1" parent="lofEi2e8uMbY3Hfqrcsc-64">
          <mxGeometry y="56" width="141" height="26" as="geometry" />
        </mxCell>
        <mxCell id="lofEi2e8uMbY3Hfqrcsc-68" value="" style="shape=partialRectangle;top=0;left=0;bottom=0;html=1;fillColor=none;align=left;verticalAlign=top;spacingLeft=4;spacingRight=4;whiteSpace=wrap;overflow=hidden;rotatable=0;points=[];portConstraint=eastwest;part=1;" vertex="1" connectable="0" parent="lofEi2e8uMbY3Hfqrcsc-67">
          <mxGeometry width="30" height="26" as="geometry" />
        </mxCell>
        <mxCell id="lofEi2e8uMbY3Hfqrcsc-75" value="&lt;h1 style=&quot;margin-top: 0px;&quot;&gt;Problem1&lt;/h1&gt;" style="text;html=1;whiteSpace=wrap;overflow=hidden;rounded=0;" vertex="1" parent="1">
          <mxGeometry x="20" y="141" width="130" height="42" as="geometry" />
        </mxCell>
        <mxCell id="lofEi2e8uMbY3Hfqrcsc-76" value="INVOICE" style="swimlane;html=1;fontStyle=0;childLayout=stackLayout;horizontal=1;startSize=26;fillColor=#e0e0e0;horizontalStack=0;resizeParent=1;resizeLast=0;collapsible=1;marginBottom=0;swimlaneFillColor=#ffffff;align=center;rounded=0;shadow=0;comic=0;labelBackgroundColor=none;strokeWidth=1;fontFamily=Verdana;fontSize=14;swimlaneLine=1;" vertex="1" parent="1">
          <mxGeometry x="280" y="560" width="150" height="160" as="geometry" />
        </mxCell>
        <mxCell id="lofEi2e8uMbY3Hfqrcsc-77" value="INV_InvoiceId" style="shape=partialRectangle;top=0;left=0;right=0;bottom=1;html=1;align=left;verticalAlign=middle;fillColor=none;spacingLeft=34;spacingRight=4;whiteSpace=wrap;overflow=hidden;rotatable=0;points=[[0,0.5],[1,0.5]];portConstraint=eastwest;dropTarget=0;fontStyle=5;" vertex="1" parent="lofEi2e8uMbY3Hfqrcsc-76">
          <mxGeometry y="26" width="150" height="30" as="geometry" />
        </mxCell>
        <mxCell id="lofEi2e8uMbY3Hfqrcsc-78" value="PK" style="shape=partialRectangle;top=0;left=0;bottom=0;html=1;fillColor=none;align=left;verticalAlign=middle;spacingLeft=4;spacingRight=4;whiteSpace=wrap;overflow=hidden;rotatable=0;points=[];portConstraint=eastwest;part=1;" vertex="1" connectable="0" parent="lofEi2e8uMbY3Hfqrcsc-77">
          <mxGeometry width="30" height="30" as="geometry" />
        </mxCell>
        <mxCell id="lofEi2e8uMbY3Hfqrcsc-79" value="CST_CustomerId" style="shape=partialRectangle;top=0;left=0;right=0;bottom=0;html=1;align=left;verticalAlign=top;fillColor=none;spacingLeft=34;spacingRight=4;whiteSpace=wrap;overflow=hidden;rotatable=0;points=[[0,0.5],[1,0.5]];portConstraint=eastwest;dropTarget=0;" vertex="1" parent="lofEi2e8uMbY3Hfqrcsc-76">
          <mxGeometry y="56" width="150" height="26" as="geometry" />
        </mxCell>
        <mxCell id="lofEi2e8uMbY3Hfqrcsc-80" value="FK" style="shape=partialRectangle;top=0;left=0;bottom=0;html=1;fillColor=none;align=left;verticalAlign=top;spacingLeft=4;spacingRight=4;whiteSpace=wrap;overflow=hidden;rotatable=0;points=[];portConstraint=eastwest;part=1;" vertex="1" connectable="0" parent="lofEi2e8uMbY3Hfqrcsc-79">
          <mxGeometry width="30" height="26" as="geometry" />
        </mxCell>
        <mxCell id="lofEi2e8uMbY3Hfqrcsc-81" value="REP_SalesrepId" style="shape=partialRectangle;top=0;left=0;right=0;bottom=0;html=1;align=left;verticalAlign=top;fillColor=none;spacingLeft=34;spacingRight=4;whiteSpace=wrap;overflow=hidden;rotatable=0;points=[[0,0.5],[1,0.5]];portConstraint=eastwest;dropTarget=0;" vertex="1" parent="lofEi2e8uMbY3Hfqrcsc-76">
          <mxGeometry y="82" width="150" height="26" as="geometry" />
        </mxCell>
        <mxCell id="lofEi2e8uMbY3Hfqrcsc-82" value="FK" style="shape=partialRectangle;top=0;left=0;bottom=0;html=1;fillColor=none;align=left;verticalAlign=top;spacingLeft=4;spacingRight=4;whiteSpace=wrap;overflow=hidden;rotatable=0;points=[];portConstraint=eastwest;part=1;" vertex="1" connectable="0" parent="lofEi2e8uMbY3Hfqrcsc-81">
          <mxGeometry width="30" height="26" as="geometry" />
        </mxCell>
        <mxCell id="lofEi2e8uMbY3Hfqrcsc-83" value="INV_InvoiceDate" style="shape=partialRectangle;top=0;left=0;right=0;bottom=0;html=1;align=left;verticalAlign=top;fillColor=none;spacingLeft=34;spacingRight=4;whiteSpace=wrap;overflow=hidden;rotatable=0;points=[[0,0.5],[1,0.5]];portConstraint=eastwest;dropTarget=0;" vertex="1" parent="lofEi2e8uMbY3Hfqrcsc-76">
          <mxGeometry y="108" width="150" height="26" as="geometry" />
        </mxCell>
        <mxCell id="lofEi2e8uMbY3Hfqrcsc-84" value="" style="shape=partialRectangle;top=0;left=0;bottom=0;html=1;fillColor=none;align=left;verticalAlign=top;spacingLeft=4;spacingRight=4;whiteSpace=wrap;overflow=hidden;rotatable=0;points=[];portConstraint=eastwest;part=1;" vertex="1" connectable="0" parent="lofEi2e8uMbY3Hfqrcsc-83">
          <mxGeometry width="30" height="26" as="geometry" />
        </mxCell>
        <mxCell id="lofEi2e8uMbY3Hfqrcsc-85" value="INV_InvoiceTotal" style="shape=partialRectangle;top=0;left=0;right=0;bottom=0;html=1;align=left;verticalAlign=top;fillColor=none;spacingLeft=34;spacingRight=4;whiteSpace=wrap;overflow=hidden;rotatable=0;points=[[0,0.5],[1,0.5]];portConstraint=eastwest;dropTarget=0;" vertex="1" parent="lofEi2e8uMbY3Hfqrcsc-76">
          <mxGeometry y="134" width="150" height="26" as="geometry" />
        </mxCell>
        <mxCell id="lofEi2e8uMbY3Hfqrcsc-86" value="" style="shape=partialRectangle;top=0;left=0;bottom=0;html=1;fillColor=none;align=left;verticalAlign=top;spacingLeft=4;spacingRight=4;whiteSpace=wrap;overflow=hidden;rotatable=0;points=[];portConstraint=eastwest;part=1;" vertex="1" connectable="0" parent="lofEi2e8uMbY3Hfqrcsc-85">
          <mxGeometry width="30" height="26" as="geometry" />
        </mxCell>
        <mxCell id="lofEi2e8uMbY3Hfqrcsc-90" value="" style="endArrow=ERzeroToMany;startArrow=ERmandOne;html=1;rounded=0;exitX=1;exitY=0.5;exitDx=0;exitDy=0;startFill=0;endFill=0;" edge="1" parent="1">
          <mxGeometry width="50" height="50" relative="1" as="geometry">
            <mxPoint x="200" y="612" as="sourcePoint" />
            <mxPoint x="280" y="612" as="targetPoint" />
          </mxGeometry>
        </mxCell>
        <mxCell id="lofEi2e8uMbY3Hfqrcsc-91" value="Writes" style="text;html=1;align=center;verticalAlign=middle;whiteSpace=wrap;rounded=0;fontSize=14;" vertex="1" parent="1">
          <mxGeometry x="207" y="586" width="64" height="30" as="geometry" />
        </mxCell>
        <mxCell id="lofEi2e8uMbY3Hfqrcsc-92" value="SALESREP" style="swimlane;html=1;fontStyle=0;childLayout=stackLayout;horizontal=1;startSize=26;fillColor=#e0e0e0;horizontalStack=0;resizeParent=1;resizeLast=0;collapsible=1;marginBottom=0;swimlaneFillColor=#ffffff;align=center;rounded=0;shadow=0;comic=0;labelBackgroundColor=none;strokeWidth=1;fontFamily=Verdana;fontSize=14;swimlaneLine=1;" vertex="1" parent="1">
          <mxGeometry x="50" y="550" width="150" height="90" as="geometry" />
        </mxCell>
        <mxCell id="lofEi2e8uMbY3Hfqrcsc-93" value="REP_SalesrepId" style="shape=partialRectangle;top=0;left=0;right=0;bottom=1;html=1;align=left;verticalAlign=middle;fillColor=none;spacingLeft=34;spacingRight=4;whiteSpace=wrap;overflow=hidden;rotatable=0;points=[[0,0.5],[1,0.5]];portConstraint=eastwest;dropTarget=0;fontStyle=5;" vertex="1" parent="lofEi2e8uMbY3Hfqrcsc-92">
          <mxGeometry y="26" width="150" height="30" as="geometry" />
        </mxCell>
        <mxCell id="lofEi2e8uMbY3Hfqrcsc-94" value="PK" style="shape=partialRectangle;top=0;left=0;bottom=0;html=1;fillColor=none;align=left;verticalAlign=middle;spacingLeft=4;spacingRight=4;whiteSpace=wrap;overflow=hidden;rotatable=0;points=[];portConstraint=eastwest;part=1;" vertex="1" connectable="0" parent="lofEi2e8uMbY3Hfqrcsc-93">
          <mxGeometry width="30" height="30" as="geometry" />
        </mxCell>
        <mxCell id="lofEi2e8uMbY3Hfqrcsc-95" value="REP_SalesrepName" style="shape=partialRectangle;top=0;left=0;right=0;bottom=0;html=1;align=left;verticalAlign=top;fillColor=none;spacingLeft=34;spacingRight=4;whiteSpace=wrap;overflow=hidden;rotatable=0;points=[[0,0.5],[1,0.5]];portConstraint=eastwest;dropTarget=0;" vertex="1" parent="lofEi2e8uMbY3Hfqrcsc-92">
          <mxGeometry y="56" width="150" height="26" as="geometry" />
        </mxCell>
        <mxCell id="lofEi2e8uMbY3Hfqrcsc-96" value="" style="shape=partialRectangle;top=0;left=0;bottom=0;html=1;fillColor=none;align=left;verticalAlign=top;spacingLeft=4;spacingRight=4;whiteSpace=wrap;overflow=hidden;rotatable=0;points=[];portConstraint=eastwest;part=1;" vertex="1" connectable="0" parent="lofEi2e8uMbY3Hfqrcsc-95">
          <mxGeometry width="30" height="26" as="geometry" />
        </mxCell>
        <mxCell id="lofEi2e8uMbY3Hfqrcsc-105" value="INVOICELINE" style="swimlane;html=1;fontStyle=0;childLayout=stackLayout;horizontal=1;startSize=26;fillColor=#e0e0e0;horizontalStack=0;resizeParent=1;resizeLast=0;collapsible=1;marginBottom=0;swimlaneFillColor=#ffffff;align=center;rounded=0;shadow=0;comic=0;labelBackgroundColor=none;strokeWidth=1;fontFamily=Verdana;fontSize=14;swimlaneLine=1;" vertex="1" parent="1">
          <mxGeometry x="520" y="560" width="190" height="140" as="geometry" />
        </mxCell>
        <mxCell id="lofEi2e8uMbY3Hfqrcsc-106" value="INVLN_InvoicelineId" style="shape=partialRectangle;top=0;left=0;right=0;bottom=1;html=1;align=left;verticalAlign=middle;fillColor=none;spacingLeft=34;spacingRight=4;whiteSpace=wrap;overflow=hidden;rotatable=0;points=[[0,0.5],[1,0.5]];portConstraint=eastwest;dropTarget=0;fontStyle=5;" vertex="1" parent="lofEi2e8uMbY3Hfqrcsc-105">
          <mxGeometry y="26" width="190" height="30" as="geometry" />
        </mxCell>
        <mxCell id="lofEi2e8uMbY3Hfqrcsc-107" value="PK" style="shape=partialRectangle;top=0;left=0;bottom=0;html=1;fillColor=none;align=left;verticalAlign=middle;spacingLeft=4;spacingRight=4;whiteSpace=wrap;overflow=hidden;rotatable=0;points=[];portConstraint=eastwest;part=1;" vertex="1" connectable="0" parent="lofEi2e8uMbY3Hfqrcsc-106">
          <mxGeometry width="30" height="30" as="geometry" />
        </mxCell>
        <mxCell id="lofEi2e8uMbY3Hfqrcsc-108" value="PRD_ProductId" style="shape=partialRectangle;top=0;left=0;right=0;bottom=0;html=1;align=left;verticalAlign=top;fillColor=none;spacingLeft=34;spacingRight=4;whiteSpace=wrap;overflow=hidden;rotatable=0;points=[[0,0.5],[1,0.5]];portConstraint=eastwest;dropTarget=0;" vertex="1" parent="lofEi2e8uMbY3Hfqrcsc-105">
          <mxGeometry y="56" width="190" height="26" as="geometry" />
        </mxCell>
        <mxCell id="lofEi2e8uMbY3Hfqrcsc-109" value="FK" style="shape=partialRectangle;top=0;left=0;bottom=0;html=1;fillColor=none;align=left;verticalAlign=top;spacingLeft=4;spacingRight=4;whiteSpace=wrap;overflow=hidden;rotatable=0;points=[];portConstraint=eastwest;part=1;" vertex="1" connectable="0" parent="lofEi2e8uMbY3Hfqrcsc-108">
          <mxGeometry width="30" height="26" as="geometry" />
        </mxCell>
        <mxCell id="lofEi2e8uMbY3Hfqrcsc-110" value="INVLN_InvoicelinePrice" style="shape=partialRectangle;top=0;left=0;right=0;bottom=0;html=1;align=left;verticalAlign=top;fillColor=none;spacingLeft=34;spacingRight=4;whiteSpace=wrap;overflow=hidden;rotatable=0;points=[[0,0.5],[1,0.5]];portConstraint=eastwest;dropTarget=0;" vertex="1" parent="lofEi2e8uMbY3Hfqrcsc-105">
          <mxGeometry y="82" width="190" height="26" as="geometry" />
        </mxCell>
        <mxCell id="lofEi2e8uMbY3Hfqrcsc-111" value="" style="shape=partialRectangle;top=0;left=0;bottom=0;html=1;fillColor=none;align=left;verticalAlign=top;spacingLeft=4;spacingRight=4;whiteSpace=wrap;overflow=hidden;rotatable=0;points=[];portConstraint=eastwest;part=1;" vertex="1" connectable="0" parent="lofEi2e8uMbY3Hfqrcsc-110">
          <mxGeometry width="30" height="26" as="geometry" />
        </mxCell>
        <mxCell id="lofEi2e8uMbY3Hfqrcsc-112" value="INVLN_InvoicelineQuantity" style="shape=partialRectangle;top=0;left=0;right=0;bottom=0;html=1;align=left;verticalAlign=top;fillColor=none;spacingLeft=34;spacingRight=4;whiteSpace=wrap;overflow=hidden;rotatable=0;points=[[0,0.5],[1,0.5]];portConstraint=eastwest;dropTarget=0;" vertex="1" parent="lofEi2e8uMbY3Hfqrcsc-105">
          <mxGeometry y="108" width="190" height="26" as="geometry" />
        </mxCell>
        <mxCell id="lofEi2e8uMbY3Hfqrcsc-113" value="" style="shape=partialRectangle;top=0;left=0;bottom=0;html=1;fillColor=none;align=left;verticalAlign=top;spacingLeft=4;spacingRight=4;whiteSpace=wrap;overflow=hidden;rotatable=0;points=[];portConstraint=eastwest;part=1;" vertex="1" connectable="0" parent="lofEi2e8uMbY3Hfqrcsc-112">
          <mxGeometry width="30" height="26" as="geometry" />
        </mxCell>
        <mxCell id="lofEi2e8uMbY3Hfqrcsc-118" value="" style="endArrow=ERoneToMany;startArrow=ERmandOne;html=1;rounded=0;exitX=1.003;exitY=0.135;exitDx=0;exitDy=0;startFill=0;endFill=0;entryX=0.003;entryY=0.147;entryDx=0;entryDy=0;entryPerimeter=0;exitPerimeter=0;" edge="1" parent="1" source="lofEi2e8uMbY3Hfqrcsc-79" target="lofEi2e8uMbY3Hfqrcsc-108">
          <mxGeometry width="50" height="50" relative="1" as="geometry">
            <mxPoint x="430" y="612" as="sourcePoint" />
            <mxPoint x="500" y="612" as="targetPoint" />
          </mxGeometry>
        </mxCell>
        <mxCell id="lofEi2e8uMbY3Hfqrcsc-119" value="Includes" style="text;html=1;align=center;verticalAlign=middle;whiteSpace=wrap;rounded=0;fontSize=14;" vertex="1" parent="1">
          <mxGeometry x="446" y="590" width="64" height="30" as="geometry" />
        </mxCell>
        <mxCell id="lofEi2e8uMbY3Hfqrcsc-121" value="PRODUCT" style="swimlane;html=1;fontStyle=0;childLayout=stackLayout;horizontal=1;startSize=26;fillColor=#e0e0e0;horizontalStack=0;resizeParent=1;resizeLast=0;collapsible=1;marginBottom=0;swimlaneFillColor=#ffffff;align=center;rounded=0;shadow=0;comic=0;labelBackgroundColor=none;strokeWidth=1;fontFamily=Verdana;fontSize=14;swimlaneLine=1;" vertex="1" parent="1">
          <mxGeometry x="810" y="570" width="190" height="140" as="geometry" />
        </mxCell>
        <mxCell id="lofEi2e8uMbY3Hfqrcsc-122" value="PROD_ProductId" style="shape=partialRectangle;top=0;left=0;right=0;bottom=1;html=1;align=left;verticalAlign=middle;fillColor=none;spacingLeft=34;spacingRight=4;whiteSpace=wrap;overflow=hidden;rotatable=0;points=[[0,0.5],[1,0.5]];portConstraint=eastwest;dropTarget=0;fontStyle=5;" vertex="1" parent="lofEi2e8uMbY3Hfqrcsc-121">
          <mxGeometry y="26" width="190" height="30" as="geometry" />
        </mxCell>
        <mxCell id="lofEi2e8uMbY3Hfqrcsc-123" value="PK" style="shape=partialRectangle;top=0;left=0;bottom=0;html=1;fillColor=none;align=left;verticalAlign=middle;spacingLeft=4;spacingRight=4;whiteSpace=wrap;overflow=hidden;rotatable=0;points=[];portConstraint=eastwest;part=1;" vertex="1" connectable="0" parent="lofEi2e8uMbY3Hfqrcsc-122">
          <mxGeometry width="30" height="30" as="geometry" />
        </mxCell>
        <mxCell id="lofEi2e8uMbY3Hfqrcsc-124" value="VEND_VendorId" style="shape=partialRectangle;top=0;left=0;right=0;bottom=0;html=1;align=left;verticalAlign=top;fillColor=none;spacingLeft=34;spacingRight=4;whiteSpace=wrap;overflow=hidden;rotatable=0;points=[[0,0.5],[1,0.5]];portConstraint=eastwest;dropTarget=0;" vertex="1" parent="lofEi2e8uMbY3Hfqrcsc-121">
          <mxGeometry y="56" width="190" height="26" as="geometry" />
        </mxCell>
        <mxCell id="lofEi2e8uMbY3Hfqrcsc-125" value="FK" style="shape=partialRectangle;top=0;left=0;bottom=0;html=1;fillColor=none;align=left;verticalAlign=top;spacingLeft=4;spacingRight=4;whiteSpace=wrap;overflow=hidden;rotatable=0;points=[];portConstraint=eastwest;part=1;" vertex="1" connectable="0" parent="lofEi2e8uMbY3Hfqrcsc-124">
          <mxGeometry width="30" height="26" as="geometry" />
        </mxCell>
        <mxCell id="lofEi2e8uMbY3Hfqrcsc-126" value="PROD_ProductDescription" style="shape=partialRectangle;top=0;left=0;right=0;bottom=0;html=1;align=left;verticalAlign=top;fillColor=none;spacingLeft=34;spacingRight=4;whiteSpace=wrap;overflow=hidden;rotatable=0;points=[[0,0.5],[1,0.5]];portConstraint=eastwest;dropTarget=0;" vertex="1" parent="lofEi2e8uMbY3Hfqrcsc-121">
          <mxGeometry y="82" width="190" height="26" as="geometry" />
        </mxCell>
        <mxCell id="lofEi2e8uMbY3Hfqrcsc-127" value="" style="shape=partialRectangle;top=0;left=0;bottom=0;html=1;fillColor=none;align=left;verticalAlign=top;spacingLeft=4;spacingRight=4;whiteSpace=wrap;overflow=hidden;rotatable=0;points=[];portConstraint=eastwest;part=1;" vertex="1" connectable="0" parent="lofEi2e8uMbY3Hfqrcsc-126">
          <mxGeometry width="30" height="26" as="geometry" />
        </mxCell>
        <mxCell id="lofEi2e8uMbY3Hfqrcsc-128" value="PROD_ProductName" style="shape=partialRectangle;top=0;left=0;right=0;bottom=0;html=1;align=left;verticalAlign=top;fillColor=none;spacingLeft=34;spacingRight=4;whiteSpace=wrap;overflow=hidden;rotatable=0;points=[[0,0.5],[1,0.5]];portConstraint=eastwest;dropTarget=0;" vertex="1" parent="lofEi2e8uMbY3Hfqrcsc-121">
          <mxGeometry y="108" width="190" height="26" as="geometry" />
        </mxCell>
        <mxCell id="lofEi2e8uMbY3Hfqrcsc-129" value="" style="shape=partialRectangle;top=0;left=0;bottom=0;html=1;fillColor=none;align=left;verticalAlign=top;spacingLeft=4;spacingRight=4;whiteSpace=wrap;overflow=hidden;rotatable=0;points=[];portConstraint=eastwest;part=1;" vertex="1" connectable="0" parent="lofEi2e8uMbY3Hfqrcsc-128">
          <mxGeometry width="30" height="26" as="geometry" />
        </mxCell>
        <mxCell id="lofEi2e8uMbY3Hfqrcsc-132" value="" style="endArrow=ERmandOne;startArrow=ERzeroToMany;html=1;rounded=0;startFill=0;endFill=0;entryX=-0.005;entryY=0.88;entryDx=0;entryDy=0;entryPerimeter=0;" edge="1" parent="1" target="lofEi2e8uMbY3Hfqrcsc-122">
          <mxGeometry width="50" height="50" relative="1" as="geometry">
            <mxPoint x="710" y="622" as="sourcePoint" />
            <mxPoint x="791" y="622" as="targetPoint" />
          </mxGeometry>
        </mxCell>
        <mxCell id="lofEi2e8uMbY3Hfqrcsc-133" value="Describes" style="text;html=1;align=center;verticalAlign=middle;whiteSpace=wrap;rounded=0;fontSize=14;" vertex="1" parent="1">
          <mxGeometry x="730" y="590" width="64" height="30" as="geometry" />
        </mxCell>
        <mxCell id="lofEi2e8uMbY3Hfqrcsc-134" value="VENDOR" style="swimlane;html=1;fontStyle=0;childLayout=stackLayout;horizontal=1;startSize=26;fillColor=#e0e0e0;horizontalStack=0;resizeParent=1;resizeLast=0;collapsible=1;marginBottom=0;swimlaneFillColor=#ffffff;align=center;rounded=0;shadow=0;comic=0;labelBackgroundColor=none;strokeWidth=1;fontFamily=Verdana;fontSize=14;swimlaneLine=1;" vertex="1" parent="1">
          <mxGeometry x="821" y="421" width="169" height="108" as="geometry" />
        </mxCell>
        <mxCell id="lofEi2e8uMbY3Hfqrcsc-135" value="VEND_VendorId" style="shape=partialRectangle;top=0;left=0;right=0;bottom=1;html=1;align=left;verticalAlign=middle;fillColor=none;spacingLeft=34;spacingRight=4;whiteSpace=wrap;overflow=hidden;rotatable=0;points=[[0,0.5],[1,0.5]];portConstraint=eastwest;dropTarget=0;fontStyle=5;" vertex="1" parent="lofEi2e8uMbY3Hfqrcsc-134">
          <mxGeometry y="26" width="169" height="30" as="geometry" />
        </mxCell>
        <mxCell id="lofEi2e8uMbY3Hfqrcsc-136" value="PK" style="shape=partialRectangle;top=0;left=0;bottom=0;html=1;fillColor=none;align=left;verticalAlign=middle;spacingLeft=4;spacingRight=4;whiteSpace=wrap;overflow=hidden;rotatable=0;points=[];portConstraint=eastwest;part=1;" vertex="1" connectable="0" parent="lofEi2e8uMbY3Hfqrcsc-135">
          <mxGeometry width="30" height="30" as="geometry" />
        </mxCell>
        <mxCell id="lofEi2e8uMbY3Hfqrcsc-139" value="VEND_VendorName" style="shape=partialRectangle;top=0;left=0;right=0;bottom=0;html=1;align=left;verticalAlign=top;fillColor=none;spacingLeft=34;spacingRight=4;whiteSpace=wrap;overflow=hidden;rotatable=0;points=[[0,0.5],[1,0.5]];portConstraint=eastwest;dropTarget=0;" vertex="1" parent="lofEi2e8uMbY3Hfqrcsc-134">
          <mxGeometry y="56" width="169" height="26" as="geometry" />
        </mxCell>
        <mxCell id="lofEi2e8uMbY3Hfqrcsc-140" value="" style="shape=partialRectangle;top=0;left=0;bottom=0;html=1;fillColor=none;align=left;verticalAlign=top;spacingLeft=4;spacingRight=4;whiteSpace=wrap;overflow=hidden;rotatable=0;points=[];portConstraint=eastwest;part=1;" vertex="1" connectable="0" parent="lofEi2e8uMbY3Hfqrcsc-139">
          <mxGeometry width="30" height="26" as="geometry" />
        </mxCell>
        <mxCell id="lofEi2e8uMbY3Hfqrcsc-141" value="VEND_VendorContact" style="shape=partialRectangle;top=0;left=0;right=0;bottom=0;html=1;align=left;verticalAlign=top;fillColor=none;spacingLeft=34;spacingRight=4;whiteSpace=wrap;overflow=hidden;rotatable=0;points=[[0,0.5],[1,0.5]];portConstraint=eastwest;dropTarget=0;" vertex="1" parent="lofEi2e8uMbY3Hfqrcsc-134">
          <mxGeometry y="82" width="169" height="26" as="geometry" />
        </mxCell>
        <mxCell id="lofEi2e8uMbY3Hfqrcsc-142" value="" style="shape=partialRectangle;top=0;left=0;bottom=0;html=1;fillColor=none;align=left;verticalAlign=top;spacingLeft=4;spacingRight=4;whiteSpace=wrap;overflow=hidden;rotatable=0;points=[];portConstraint=eastwest;part=1;" vertex="1" connectable="0" parent="lofEi2e8uMbY3Hfqrcsc-141">
          <mxGeometry width="30" height="26" as="geometry" />
        </mxCell>
        <mxCell id="lofEi2e8uMbY3Hfqrcsc-145" value="" style="endArrow=ERmandOne;startArrow=ERzeroToMany;html=1;rounded=0;exitX=0.5;exitY=0;exitDx=0;exitDy=0;startFill=0;endFill=0;" edge="1" parent="1" source="lofEi2e8uMbY3Hfqrcsc-121">
          <mxGeometry width="50" height="50" relative="1" as="geometry">
            <mxPoint x="640" y="402" as="sourcePoint" />
            <mxPoint x="904" y="530" as="targetPoint" />
          </mxGeometry>
        </mxCell>
        <mxCell id="lofEi2e8uMbY3Hfqrcsc-146" value="Provides" style="text;html=1;align=center;verticalAlign=middle;whiteSpace=wrap;rounded=0;fontSize=14;" vertex="1" parent="1">
          <mxGeometry x="830" y="530" width="64" height="30" as="geometry" />
        </mxCell>
        <mxCell id="lofEi2e8uMbY3Hfqrcsc-147" value="&lt;h1 style=&quot;margin-top: 0px;&quot;&gt;Problem2&lt;/h1&gt;" style="text;html=1;whiteSpace=wrap;overflow=hidden;rounded=0;" vertex="1" parent="1">
          <mxGeometry x="50" y="710" width="180" height="40" as="geometry" />
        </mxCell>
        <mxCell id="lofEi2e8uMbY3Hfqrcsc-148" value="CUSTOMER" style="swimlane;html=1;fontStyle=0;childLayout=stackLayout;horizontal=1;startSize=26;fillColor=#e0e0e0;horizontalStack=0;resizeParent=1;resizeLast=0;collapsible=1;marginBottom=0;swimlaneFillColor=#ffffff;align=center;rounded=0;shadow=0;comic=0;labelBackgroundColor=none;strokeWidth=1;fontFamily=Verdana;fontSize=14;swimlaneLine=1;" vertex="1" parent="1">
          <mxGeometry x="285" y="390" width="140" height="110" as="geometry" />
        </mxCell>
        <mxCell id="lofEi2e8uMbY3Hfqrcsc-149" value="CST_CustomerId" style="shape=partialRectangle;top=0;left=0;right=0;bottom=1;html=1;align=left;verticalAlign=middle;fillColor=none;spacingLeft=34;spacingRight=4;whiteSpace=wrap;overflow=hidden;rotatable=0;points=[[0,0.5],[1,0.5]];portConstraint=eastwest;dropTarget=0;fontStyle=5;" vertex="1" parent="lofEi2e8uMbY3Hfqrcsc-148">
          <mxGeometry y="26" width="140" height="30" as="geometry" />
        </mxCell>
        <mxCell id="lofEi2e8uMbY3Hfqrcsc-150" value="PK" style="shape=partialRectangle;top=0;left=0;bottom=0;html=1;fillColor=none;align=left;verticalAlign=middle;spacingLeft=4;spacingRight=4;whiteSpace=wrap;overflow=hidden;rotatable=0;points=[];portConstraint=eastwest;part=1;" vertex="1" connectable="0" parent="lofEi2e8uMbY3Hfqrcsc-149">
          <mxGeometry width="30" height="30" as="geometry" />
        </mxCell>
        <mxCell id="lofEi2e8uMbY3Hfqrcsc-151" value="CUST_NAME" style="shape=partialRectangle;top=0;left=0;right=0;bottom=0;html=1;align=left;verticalAlign=top;fillColor=none;spacingLeft=34;spacingRight=4;whiteSpace=wrap;overflow=hidden;rotatable=0;points=[[0,0.5],[1,0.5]];portConstraint=eastwest;dropTarget=0;" vertex="1" parent="lofEi2e8uMbY3Hfqrcsc-148">
          <mxGeometry y="56" width="140" height="26" as="geometry" />
        </mxCell>
        <mxCell id="lofEi2e8uMbY3Hfqrcsc-152" value="" style="shape=partialRectangle;top=0;left=0;bottom=0;html=1;fillColor=none;align=left;verticalAlign=top;spacingLeft=4;spacingRight=4;whiteSpace=wrap;overflow=hidden;rotatable=0;points=[];portConstraint=eastwest;part=1;" vertex="1" connectable="0" parent="lofEi2e8uMbY3Hfqrcsc-151">
          <mxGeometry width="30" height="26" as="geometry" />
        </mxCell>
        <mxCell id="lofEi2e8uMbY3Hfqrcsc-159" value="CUST_PHONE" style="shape=partialRectangle;top=0;left=0;right=0;bottom=0;html=1;align=left;verticalAlign=top;fillColor=none;spacingLeft=34;spacingRight=4;whiteSpace=wrap;overflow=hidden;rotatable=0;points=[[0,0.5],[1,0.5]];portConstraint=eastwest;dropTarget=0;" vertex="1" parent="lofEi2e8uMbY3Hfqrcsc-148">
          <mxGeometry y="82" width="140" height="26" as="geometry" />
        </mxCell>
        <mxCell id="lofEi2e8uMbY3Hfqrcsc-160" value="" style="shape=partialRectangle;top=0;left=0;bottom=0;html=1;fillColor=none;align=left;verticalAlign=top;spacingLeft=4;spacingRight=4;whiteSpace=wrap;overflow=hidden;rotatable=0;points=[];portConstraint=eastwest;part=1;" vertex="1" connectable="0" parent="lofEi2e8uMbY3Hfqrcsc-159">
          <mxGeometry width="30" height="26" as="geometry" />
        </mxCell>
        <mxCell id="lofEi2e8uMbY3Hfqrcsc-161" value="" style="endArrow=ERzeroToMany;startArrow=ERmandOne;html=1;rounded=0;startFill=0;endFill=0;entryX=0.5;entryY=0;entryDx=0;entryDy=0;exitX=0.5;exitY=1;exitDx=0;exitDy=0;" edge="1" parent="1" source="lofEi2e8uMbY3Hfqrcsc-148" target="lofEi2e8uMbY3Hfqrcsc-76">
          <mxGeometry width="50" height="50" relative="1" as="geometry">
            <mxPoint x="350" y="500" as="sourcePoint" />
            <mxPoint x="500" y="622" as="targetPoint" />
          </mxGeometry>
        </mxCell>
        <mxCell id="lofEi2e8uMbY3Hfqrcsc-162" value="Has" style="text;html=1;align=center;verticalAlign=middle;whiteSpace=wrap;rounded=0;fontSize=14;" vertex="1" parent="1">
          <mxGeometry x="300" y="510" width="64" height="30" as="geometry" />
        </mxCell>
        <mxCell id="lofEi2e8uMbY3Hfqrcsc-164" value="Is employed" style="text;html=1;align=center;verticalAlign=middle;whiteSpace=wrap;rounded=0;fontSize=14;" vertex="1" parent="1">
          <mxGeometry x="556" y="139" width="90" height="30" as="geometry" />
        </mxCell>
        <mxCell id="lofEi2e8uMbY3Hfqrcsc-165" value="Is operated by" style="text;html=1;align=center;verticalAlign=middle;whiteSpace=wrap;rounded=0;fontSize=14;" vertex="1" parent="1">
          <mxGeometry x="280" y="165.5" width="130" height="30" as="geometry" />
        </mxCell>
        <mxCell id="lofEi2e8uMbY3Hfqrcsc-166" value="Is managed by" style="text;html=1;align=center;verticalAlign=middle;whiteSpace=wrap;rounded=0;fontSize=14;" vertex="1" parent="1">
          <mxGeometry x="545" y="194" width="110" height="30" as="geometry" />
        </mxCell>
        <mxCell id="lofEi2e8uMbY3Hfqrcsc-167" value="Is run by" style="text;html=1;align=center;verticalAlign=middle;whiteSpace=wrap;rounded=0;fontSize=14;" vertex="1" parent="1">
          <mxGeometry x="460" y="74" width="64" height="30" as="geometry" />
        </mxCell>
        <mxCell id="lofEi2e8uMbY3Hfqrcsc-170" value="Assigns with" style="text;html=1;align=center;verticalAlign=middle;whiteSpace=wrap;rounded=0;fontSize=14;" vertex="1" parent="1">
          <mxGeometry x="831" y="120" width="90" height="30" as="geometry" />
        </mxCell>
        <mxCell id="lofEi2e8uMbY3Hfqrcsc-174" value="Is written by" style="text;html=1;align=center;verticalAlign=middle;whiteSpace=wrap;rounded=0;fontSize=14;" vertex="1" parent="1">
          <mxGeometry x="200" y="610" width="80" height="30" as="geometry" />
        </mxCell>
        <mxCell id="lofEi2e8uMbY3Hfqrcsc-175" value="Is owned by" style="text;html=1;align=center;verticalAlign=middle;whiteSpace=wrap;rounded=0;fontSize=14;" vertex="1" parent="1">
          <mxGeometry x="363" y="510" width="87" height="30" as="geometry" />
        </mxCell>
        <mxCell id="lofEi2e8uMbY3Hfqrcsc-176" value="Is included in" style="text;html=1;align=center;verticalAlign=middle;whiteSpace=wrap;rounded=0;fontSize=14;" vertex="1" parent="1">
          <mxGeometry x="430" y="620" width="90" height="30" as="geometry" />
        </mxCell>
        <mxCell id="lofEi2e8uMbY3Hfqrcsc-177" value="Is described by" style="text;html=1;align=center;verticalAlign=middle;whiteSpace=wrap;rounded=0;fontSize=14;" vertex="1" parent="1">
          <mxGeometry x="710" y="625" width="100" height="30" as="geometry" />
        </mxCell>
        <mxCell id="lofEi2e8uMbY3Hfqrcsc-178" value="Is provided by" style="text;html=1;align=center;verticalAlign=middle;whiteSpace=wrap;rounded=0;fontSize=14;" vertex="1" parent="1">
          <mxGeometry x="915" y="530" width="95" height="30" as="geometry" />
        </mxCell>
      </root>
    </mxGraphModel>
  </diagram>
</mxfile>
